<svg xmlns="http://www.w3.org/2000/svg" viewBox="0 0 512 512" style="height: 512px; width: 512px;"><g class="" transform="translate(0,0)" style=""><g transform="translate(25.6, 486.4) scale(0.9, -0.9) rotate(-375, 256, 256) skewX(0) skewY(0)"><path d="M409.28 19.313C388.773 19.653 368.444 27.558 352.75 43.25C332.192 63.808 324.927 92.81 330.562 119.406L331.594 124.344L328 127.938L284.594 171.344C288.466 174.251 291.762 177.854 294.314 181.969C301.48 193.559 300.619 210.659 288.094 223.187L276.124 235.155L306.562 265.625L386.125 186.062L389.688 182.468L394.656 183.528C421.096 189.053 449.792 181.548 470.406 160.935C494.002 137.34 499.924 103.239 489.094 73.842L439.874 123.092C426.164 136.8 403.574 138.102 389.781 124.312C375.991 110.519 376.711 87.694 390.595 73.812L439.815 24.562C431.27 21.412 422.34 19.632 413.375 19.342C412.011 19.298 410.646 19.287 409.282 19.31Z" class="" fill="#f7fee7" fill-opacity="1" stroke="#5ea500" stroke-opacity="1" stroke-width="12"></path><path d="M72.157 21.53C58.624 21.692 46.3 27.664 37.22 37.22C19.057 56.328 13.645 88.3 41.78 116.438L127.906 202.562C158.156 205.295 180.91 229.224 181.812 260.094L182 266C182.883 271.654 186.31 276.126 190.844 278.47C196.578 281.433 203.231 281.615 210.469 274.375L274.874 209.969C282.592 202.249 281.77 197.253 278.404 191.812C275.04 186.37 267.132 181.749 259.594 181.749L259.404 181.749L259.218 181.719C229.093 180.421 205.791 158.232 202.718 128.719L116.123 42.124C100.84 26.84 85.69 21.37 72.155 21.53Z" class="selected" fill="#f7fee7" fill-opacity="1" stroke="#5ea500" stroke-opacity="1" stroke-width="12"></path><path d="M263.345 248.844L249.315 262.874L385.815 399.406L389.125 402.719L388.47 407.374L383.875 439.187L461.063 488.562L489 460.625L439.625 383.405L407.845 388L403.187 388.688L399.875 385.375L263.345 248.845Z" class="" fill="#f7fee7" fill-opacity="1" stroke="#5ea500" stroke-opacity="1" stroke-width="8"></path><path d="M235.625 275.656L223.689 287.594C211.451 299.834 194.555 301.454 182.251 295.094C177.706 292.739 173.728 289.422 170.595 285.374L128.815 327.156L125.22 330.75L120.25 329.687C93.654 324.055 64.65 331.319 44.094 351.875C20.496 375.471 14.574 409.572 25.406 438.969L74.656 389.719C88.539 375.842 111.366 375.114 125.156 388.905C138.948 402.697 137.65 425.289 123.936 438.999L74.686 488.249C104.084 499.079 138.184 493.155 161.781 469.561C182.394 448.946 189.895 420.219 184.376 393.781L183.346 388.843L186.906 385.28L266.096 306.094L235.626 275.656Z" class="" fill="#f7fee7" fill-opacity="1" stroke="#5ea500" stroke-opacity="1" stroke-width="12"></path></g></g></svg>